<mxfile host="app.diagrams.net" modified="2023-12-16T09:40:40.516Z" agent="Mozilla/5.0 (Macintosh; Intel Mac OS X 10_15_7) AppleWebKit/605.1.15 (KHTML, like Gecko) Version/17.1 Safari/605.1.15" etag="fNMMOSYcrcvn2uvj_tgW" version="22.1.11" type="device" pages="2">
  <diagram id="QM2p47kPDZQZnexqTIiv" name="Страница 1">
    <mxGraphModel dx="2776" dy="761" grid="1" gridSize="15" guides="1" tooltips="1" connect="1" arrows="1" fold="1" page="1" pageScale="1" pageWidth="1654" pageHeight="2336" background="none" math="0" shadow="0">
      <root>
        <mxCell id="0" />
        <mxCell id="1" parent="0" />
        <mxCell id="tlYQEf0KJhSnlucm59ux-1" style="edgeStyle=orthogonalEdgeStyle;rounded=0;html=1;exitX=0.5;exitY=0;exitDx=0;exitDy=0;entryX=0.5;entryY=0;entryDx=0;entryDy=0;endArrow=none;endFill=0;fontSize=11;" edge="1" parent="1" source="tlYQEf0KJhSnlucm59ux-2" target="tlYQEf0KJhSnlucm59ux-10">
          <mxGeometry relative="1" as="geometry" />
        </mxCell>
        <mxCell id="tlYQEf0KJhSnlucm59ux-2" value="B&lt;br&gt;Конец по ants" style="shape=loopLimit;whiteSpace=wrap;html=1;strokeWidth=1;direction=west;fontSize=11;" vertex="1" parent="1">
          <mxGeometry x="185" y="630" width="200" height="60" as="geometry" />
        </mxCell>
        <mxCell id="tlYQEf0KJhSnlucm59ux-3" value="Конец" style="html=1;dashed=0;whitespace=wrap;shape=mxgraph.dfd.start;fontSize=11;" vertex="1" parent="1">
          <mxGeometry x="185" y="900" width="200" height="60" as="geometry" />
        </mxCell>
        <mxCell id="tlYQEf0KJhSnlucm59ux-4" style="edgeStyle=orthogonalEdgeStyle;rounded=0;orthogonalLoop=1;jettySize=auto;html=1;exitX=1;exitY=0.5;exitDx=0;exitDy=0;endArrow=none;endFill=0;fontSize=11;" edge="1" parent="1" source="tlYQEf0KJhSnlucm59ux-6">
          <mxGeometry relative="1" as="geometry">
            <mxPoint x="445" y="230" as="targetPoint" />
          </mxGeometry>
        </mxCell>
        <mxCell id="tlYQEf0KJhSnlucm59ux-5" style="edgeStyle=orthogonalEdgeStyle;rounded=0;orthogonalLoop=1;jettySize=auto;html=1;exitX=0;exitY=0.5;exitDx=0;exitDy=0;" edge="1" parent="1" source="tlYQEf0KJhSnlucm59ux-6" target="tlYQEf0KJhSnlucm59ux-14">
          <mxGeometry relative="1" as="geometry" />
        </mxCell>
        <mxCell id="tlYQEf0KJhSnlucm59ux-6" value="cur_length &amp;lt; min_length&lt;br&gt;flag = 0" style="shape=rhombus;html=1;dashed=0;whitespace=wrap;perimeter=rhombusPerimeter;fontSize=11;" vertex="1" parent="1">
          <mxGeometry x="185" y="120" width="200" height="60" as="geometry" />
        </mxCell>
        <mxCell id="tlYQEf0KJhSnlucm59ux-7" value="Да" style="text;html=1;align=center;verticalAlign=middle;resizable=0;points=[];autosize=1;strokeColor=none;fontSize=11;" vertex="1" parent="1">
          <mxGeometry x="405" y="120" width="40" height="30" as="geometry" />
        </mxCell>
        <mxCell id="tlYQEf0KJhSnlucm59ux-8" value="min_dist = cur_dist" style="html=1;dashed=0;whitespace=wrap;fontSize=11;" vertex="1" parent="1">
          <mxGeometry x="345" y="210" width="200" height="60" as="geometry" />
        </mxCell>
        <mxCell id="tlYQEf0KJhSnlucm59ux-9" style="edgeStyle=orthogonalEdgeStyle;rounded=0;html=1;exitX=0.5;exitY=1;exitDx=0;exitDy=0;entryX=0.5;entryY=1;entryDx=0;entryDy=0;endArrow=none;endFill=0;fontSize=11;" edge="1" parent="1" source="tlYQEf0KJhSnlucm59ux-10" target="tlYQEf0KJhSnlucm59ux-12">
          <mxGeometry relative="1" as="geometry" />
        </mxCell>
        <mxCell id="tlYQEf0KJhSnlucm59ux-10" value="Обновить матрицу феромонов" style="shape=process;whiteSpace=wrap;html=1;backgroundOutline=1;fontSize=11;" vertex="1" parent="1">
          <mxGeometry x="185" y="720" width="200" height="60" as="geometry" />
        </mxCell>
        <mxCell id="tlYQEf0KJhSnlucm59ux-11" style="edgeStyle=orthogonalEdgeStyle;rounded=0;html=1;exitX=0.5;exitY=0;exitDx=0;exitDy=0;endArrow=none;endFill=0;entryX=0.5;entryY=0.5;entryDx=0;entryDy=-30;entryPerimeter=0;fontSize=11;" edge="1" parent="1" source="tlYQEf0KJhSnlucm59ux-12" target="tlYQEf0KJhSnlucm59ux-3">
          <mxGeometry relative="1" as="geometry">
            <mxPoint x="285" y="930" as="targetPoint" />
          </mxGeometry>
        </mxCell>
        <mxCell id="tlYQEf0KJhSnlucm59ux-12" value="A&lt;br&gt;Конец по i" style="shape=loopLimit;whiteSpace=wrap;html=1;strokeWidth=1;direction=west;fontSize=11;" vertex="1" parent="1">
          <mxGeometry x="185" y="810" width="200" height="60" as="geometry" />
        </mxCell>
        <mxCell id="tlYQEf0KJhSnlucm59ux-26" style="edgeStyle=orthogonalEdgeStyle;rounded=0;orthogonalLoop=1;jettySize=auto;html=1;exitX=1;exitY=0.5;exitDx=0;exitDy=0;endArrow=none;endFill=0;" edge="1" parent="1" source="tlYQEf0KJhSnlucm59ux-14" target="tlYQEf0KJhSnlucm59ux-16">
          <mxGeometry relative="1" as="geometry" />
        </mxCell>
        <mxCell id="tlYQEf0KJhSnlucm59ux-29" style="edgeStyle=orthogonalEdgeStyle;rounded=0;orthogonalLoop=1;jettySize=auto;html=1;exitX=0;exitY=0.5;exitDx=0;exitDy=0;endArrow=none;endFill=0;" edge="1" parent="1" source="tlYQEf0KJhSnlucm59ux-14">
          <mxGeometry relative="1" as="geometry">
            <mxPoint x="60" y="600" as="targetPoint" />
            <Array as="points">
              <mxPoint x="-80" y="240" />
              <mxPoint x="-80" y="570" />
              <mxPoint x="60" y="570" />
            </Array>
          </mxGeometry>
        </mxCell>
        <mxCell id="tlYQEf0KJhSnlucm59ux-14" value="cur_length &amp;lt; min_ldist&lt;br&gt;max_visite_cities &amp;lt; cur_visit" style="shape=rhombus;html=1;dashed=0;whitespace=wrap;perimeter=rhombusPerimeter;fontSize=11;" vertex="1" parent="1">
          <mxGeometry x="-60" y="205" width="200" height="70" as="geometry" />
        </mxCell>
        <mxCell id="tlYQEf0KJhSnlucm59ux-15" value="" style="edgeStyle=orthogonalEdgeStyle;rounded=0;orthogonalLoop=1;jettySize=auto;html=1;endArrow=none;endFill=0;" edge="1" parent="1" source="tlYQEf0KJhSnlucm59ux-16" target="tlYQEf0KJhSnlucm59ux-18">
          <mxGeometry relative="1" as="geometry" />
        </mxCell>
        <mxCell id="tlYQEf0KJhSnlucm59ux-16" value="min_dist = cur_dist" style="html=1;dashed=0;whitespace=wrap;fontSize=11;" vertex="1" parent="1">
          <mxGeometry x="60" y="300" width="200" height="60" as="geometry" />
        </mxCell>
        <mxCell id="tlYQEf0KJhSnlucm59ux-17" value="" style="edgeStyle=orthogonalEdgeStyle;rounded=0;orthogonalLoop=1;jettySize=auto;html=1;endArrow=none;endFill=0;" edge="1" parent="1" source="tlYQEf0KJhSnlucm59ux-18" target="tlYQEf0KJhSnlucm59ux-20">
          <mxGeometry relative="1" as="geometry" />
        </mxCell>
        <mxCell id="tlYQEf0KJhSnlucm59ux-18" value="&lt;span style=&quot;border-color: var(--border-color);&quot;&gt;max_visite_cities = &amp;nbsp;cur_visit&lt;br&gt;&lt;/span&gt;" style="html=1;dashed=0;whitespace=wrap;fontSize=11;" vertex="1" parent="1">
          <mxGeometry x="60" y="390" width="200" height="60" as="geometry" />
        </mxCell>
        <mxCell id="tlYQEf0KJhSnlucm59ux-20" value="best_way = visited[ant][:cur-visit]" style="html=1;dashed=0;whitespace=wrap;fontSize=11;" vertex="1" parent="1">
          <mxGeometry x="62.5" y="480" width="195" height="60" as="geometry" />
        </mxCell>
        <mxCell id="tlYQEf0KJhSnlucm59ux-21" value="max_visite_cities = &amp;nbsp;cur_visit" style="html=1;dashed=0;whitespace=wrap;fontSize=11;" vertex="1" parent="1">
          <mxGeometry x="345" y="300" width="200" height="60" as="geometry" />
        </mxCell>
        <mxCell id="tlYQEf0KJhSnlucm59ux-22" style="edgeStyle=orthogonalEdgeStyle;rounded=0;orthogonalLoop=1;jettySize=auto;html=1;exitX=0.5;exitY=1;exitDx=0;exitDy=0;entryX=0.5;entryY=1;entryDx=0;entryDy=0;endArrow=none;endFill=0;" edge="1" parent="1" source="tlYQEf0KJhSnlucm59ux-23" target="tlYQEf0KJhSnlucm59ux-2">
          <mxGeometry relative="1" as="geometry">
            <Array as="points">
              <mxPoint x="445" y="600" />
              <mxPoint x="285" y="600" />
            </Array>
          </mxGeometry>
        </mxCell>
        <mxCell id="tlYQEf0KJhSnlucm59ux-23" value="best_way = visited[ant]" style="html=1;dashed=0;whitespace=wrap;fontSize=11;" vertex="1" parent="1">
          <mxGeometry x="345" y="390" width="200" height="60" as="geometry" />
        </mxCell>
        <mxCell id="tlYQEf0KJhSnlucm59ux-25" value="" style="edgeStyle=orthogonalEdgeStyle;rounded=0;orthogonalLoop=1;jettySize=auto;html=1;endArrow=none;endFill=0;" edge="1" parent="1" source="tlYQEf0KJhSnlucm59ux-24" target="tlYQEf0KJhSnlucm59ux-6">
          <mxGeometry relative="1" as="geometry" />
        </mxCell>
        <mxCell id="tlYQEf0KJhSnlucm59ux-24" value="Б" style="ellipse;whiteSpace=wrap;html=1;aspect=fixed;" vertex="1" parent="1">
          <mxGeometry x="247.5" y="15" width="75" height="75" as="geometry" />
        </mxCell>
        <mxCell id="tlYQEf0KJhSnlucm59ux-30" value="" style="endArrow=classic;html=1;rounded=0;exitX=0.5;exitY=1;exitDx=0;exitDy=0;entryX=0.5;entryY=1;entryDx=0;entryDy=0;" edge="1" parent="1" source="tlYQEf0KJhSnlucm59ux-20" target="tlYQEf0KJhSnlucm59ux-2">
          <mxGeometry width="50" height="50" relative="1" as="geometry">
            <mxPoint x="180" y="485" as="sourcePoint" />
            <mxPoint x="230" y="435" as="targetPoint" />
            <Array as="points">
              <mxPoint x="160" y="570" />
              <mxPoint x="60" y="570" />
              <mxPoint x="60" y="600" />
              <mxPoint x="285" y="600" />
            </Array>
          </mxGeometry>
        </mxCell>
        <mxCell id="tlYQEf0KJhSnlucm59ux-31" value="Да" style="text;html=1;align=center;verticalAlign=middle;resizable=0;points=[];autosize=1;strokeColor=none;fontSize=11;" vertex="1" parent="1">
          <mxGeometry x="135" y="210" width="40" height="30" as="geometry" />
        </mxCell>
      </root>
    </mxGraphModel>
  </diagram>
  <diagram id="wxrkHAhbZID-tpD61CBW" name="Страница — 2">
    <mxGraphModel dx="954" dy="647" grid="1" gridSize="15" guides="1" tooltips="1" connect="1" arrows="1" fold="1" page="1" pageScale="1" pageWidth="827" pageHeight="1169" math="0" shadow="0">
      <root>
        <mxCell id="0" />
        <mxCell id="1" parent="0" />
        <mxCell id="VVzJJM5CuwtTol1S2sW--1" style="edgeStyle=none;html=1;exitX=0.5;exitY=0.5;exitDx=0;exitDy=30;exitPerimeter=0;entryX=0.5;entryY=0;entryDx=0;entryDy=0;endArrow=none;endFill=0;fontSize=11;" parent="1" source="VVzJJM5CuwtTol1S2sW--2" target="VVzJJM5CuwtTol1S2sW--4" edge="1">
          <mxGeometry relative="1" as="geometry" />
        </mxCell>
        <mxCell id="VVzJJM5CuwtTol1S2sW--2" value="Начало" style="html=1;dashed=0;whitespace=wrap;shape=mxgraph.dfd.start;fontSize=11;" parent="1" vertex="1">
          <mxGeometry x="540" y="30" width="200" height="60" as="geometry" />
        </mxCell>
        <mxCell id="VVzJJM5CuwtTol1S2sW--3" style="edgeStyle=none;html=1;exitX=0.5;exitY=1;exitDx=0;exitDy=0;entryX=0.5;entryY=0;entryDx=0;entryDy=0;endArrow=none;endFill=0;fontSize=11;" parent="1" source="VVzJJM5CuwtTol1S2sW--4" edge="1">
          <mxGeometry relative="1" as="geometry">
            <mxPoint x="640" y="205" as="targetPoint" />
          </mxGeometry>
        </mxCell>
        <mxCell id="VVzJJM5CuwtTol1S2sW--4" value="Вычислить q" style="shape=process;whiteSpace=wrap;html=1;backgroundOutline=1;fontSize=11;" parent="1" vertex="1">
          <mxGeometry x="540" y="120" width="200" height="60" as="geometry" />
        </mxCell>
        <mxCell id="VVzJJM5CuwtTol1S2sW--5" style="edgeStyle=orthogonalEdgeStyle;rounded=0;html=1;exitX=0.5;exitY=1;exitDx=0;exitDy=0;entryX=0.5;entryY=0;entryDx=0;entryDy=0;endArrow=none;endFill=0;fontSize=11;" parent="1" source="VVzJJM5CuwtTol1S2sW--6" target="VVzJJM5CuwtTol1S2sW--11" edge="1">
          <mxGeometry relative="1" as="geometry" />
        </mxCell>
        <mxCell id="VVzJJM5CuwtTol1S2sW--6" value="Получить матрицу видимости&lt;br style=&quot;font-size: 11px;&quot;&gt;(visibility)" style="shape=process;whiteSpace=wrap;html=1;backgroundOutline=1;fontSize=11;" parent="1" vertex="1">
          <mxGeometry x="540" y="570" width="200" height="60" as="geometry" />
        </mxCell>
        <mxCell id="VVzJJM5CuwtTol1S2sW--7" style="edgeStyle=orthogonalEdgeStyle;rounded=0;html=1;exitX=0.5;exitY=1;exitDx=0;exitDy=0;entryX=0.5;entryY=0;entryDx=0;entryDy=0;endArrow=none;endFill=0;fontSize=11;" parent="1" source="VVzJJM5CuwtTol1S2sW--9" target="VVzJJM5CuwtTol1S2sW--6" edge="1">
          <mxGeometry relative="1" as="geometry" />
        </mxCell>
        <mxCell id="VVzJJM5CuwtTol1S2sW--8" value="" style="edgeStyle=orthogonalEdgeStyle;rounded=0;orthogonalLoop=1;jettySize=auto;html=1;endArrow=none;endFill=0;" parent="1" source="VVzJJM5CuwtTol1S2sW--9" target="VVzJJM5CuwtTol1S2sW--129" edge="1">
          <mxGeometry relative="1" as="geometry" />
        </mxCell>
        <mxCell id="VVzJJM5CuwtTol1S2sW--9" value="Получить матрицу феромонов&lt;br style=&quot;font-size: 11px;&quot;&gt;(pheromones)" style="shape=process;whiteSpace=wrap;html=1;backgroundOutline=1;fontSize=11;" parent="1" vertex="1">
          <mxGeometry x="540" y="480" width="200" height="60" as="geometry" />
        </mxCell>
        <mxCell id="VVzJJM5CuwtTol1S2sW--10" style="edgeStyle=orthogonalEdgeStyle;rounded=0;html=1;exitX=0.5;exitY=1;exitDx=0;exitDy=0;entryX=0.5;entryY=0;entryDx=0;entryDy=0;endArrow=none;endFill=0;fontSize=11;" parent="1" source="VVzJJM5CuwtTol1S2sW--11" target="VVzJJM5CuwtTol1S2sW--13" edge="1">
          <mxGeometry relative="1" as="geometry" />
        </mxCell>
        <mxCell id="VVzJJM5CuwtTol1S2sW--11" value="ants = places&lt;br style=&quot;font-size: 11px;&quot;&gt;" style="html=1;dashed=0;whitespace=wrap;fontSize=11;" parent="1" vertex="1">
          <mxGeometry x="540" y="660" width="200" height="60" as="geometry" />
        </mxCell>
        <mxCell id="VVzJJM5CuwtTol1S2sW--12" style="edgeStyle=orthogonalEdgeStyle;rounded=0;html=1;exitX=0.5;exitY=1;exitDx=0;exitDy=0;endArrow=none;endFill=0;fontSize=11;" parent="1" source="VVzJJM5CuwtTol1S2sW--13" edge="1">
          <mxGeometry relative="1" as="geometry">
            <mxPoint x="640" y="840" as="targetPoint" />
          </mxGeometry>
        </mxCell>
        <mxCell id="VVzJJM5CuwtTol1S2sW--13" value="A&lt;br style=&quot;font-size: 11px;&quot;&gt;i &amp;lt; days" style="shape=loopLimit;whiteSpace=wrap;html=1;direction=east;fontSize=11;" parent="1" vertex="1">
          <mxGeometry x="540" y="750" width="200" height="60" as="geometry" />
        </mxCell>
        <mxCell id="VVzJJM5CuwtTol1S2sW--14" style="edgeStyle=orthogonalEdgeStyle;rounded=0;html=1;exitX=0.5;exitY=1;exitDx=0;exitDy=0;endArrow=none;endFill=0;fontSize=11;" parent="1" source="VVzJJM5CuwtTol1S2sW--15" edge="1">
          <mxGeometry relative="1" as="geometry">
            <mxPoint x="640" y="930" as="targetPoint" />
          </mxGeometry>
        </mxCell>
        <mxCell id="VVzJJM5CuwtTol1S2sW--15" value="Инициализация текущего пути&lt;br style=&quot;font-size: 11px;&quot;&gt;route = [города от 0 до places]" style="html=1;dashed=0;whitespace=wrap;fontSize=11;" parent="1" vertex="1">
          <mxGeometry x="540" y="840" width="200" height="60" as="geometry" />
        </mxCell>
        <mxCell id="VVzJJM5CuwtTol1S2sW--16" style="edgeStyle=orthogonalEdgeStyle;rounded=0;html=1;exitX=0.5;exitY=1;exitDx=0;exitDy=0;entryX=0.5;entryY=0;entryDx=0;entryDy=0;endArrow=none;endFill=0;fontSize=11;" parent="1" source="VVzJJM5CuwtTol1S2sW--17" target="VVzJJM5CuwtTol1S2sW--19" edge="1">
          <mxGeometry relative="1" as="geometry" />
        </mxCell>
        <mxCell id="VVzJJM5CuwtTol1S2sW--17" value="Инициализация массив посещенных городов (visited) &lt;br style=&quot;font-size: 11px;&quot;&gt;для каждого муравья" style="shape=process;whiteSpace=wrap;html=1;backgroundOutline=1;fontSize=11;" parent="1" vertex="1">
          <mxGeometry x="540" y="930" width="200" height="60" as="geometry" />
        </mxCell>
        <mxCell id="VVzJJM5CuwtTol1S2sW--18" style="edgeStyle=orthogonalEdgeStyle;rounded=0;html=1;exitX=0.5;exitY=1;exitDx=0;exitDy=0;entryX=0.5;entryY=0;entryDx=0;entryDy=0;endArrow=none;endFill=0;fontSize=11;" parent="1" source="VVzJJM5CuwtTol1S2sW--19" edge="1">
          <mxGeometry relative="1" as="geometry">
            <mxPoint x="640" y="1110" as="targetPoint" />
          </mxGeometry>
        </mxCell>
        <mxCell id="VVzJJM5CuwtTol1S2sW--19" value="B&lt;br style=&quot;font-size: 11px;&quot;&gt;ant &amp;lt; len(ants)" style="shape=loopLimit;whiteSpace=wrap;html=1;direction=east;fontSize=11;" parent="1" vertex="1">
          <mxGeometry x="540" y="1020" width="200" height="60" as="geometry" />
        </mxCell>
        <mxCell id="VVzJJM5CuwtTol1S2sW--20" value="A" style="shape=ellipse;html=1;dashed=0;whitespace=wrap;aspect=fixed;perimeter=ellipsePerimeter;fontSize=11;" parent="1" vertex="1">
          <mxGeometry x="615" y="1110" width="50" height="50" as="geometry" />
        </mxCell>
        <mxCell id="VVzJJM5CuwtTol1S2sW--21" value="best_way = []&lt;span style=&quot;border-color: var(--border-color); font-size: 11px;&quot;&gt;&lt;br style=&quot;font-size: 11px;&quot;&gt;&lt;/span&gt;" style="html=1;dashed=0;whitespace=wrap;fontSize=11;" parent="1" vertex="1">
          <mxGeometry x="540" y="210" width="200" height="60" as="geometry" />
        </mxCell>
        <mxCell id="VVzJJM5CuwtTol1S2sW--22" style="edgeStyle=orthogonalEdgeStyle;rounded=0;html=1;exitX=0.5;exitY=1;exitDx=0;exitDy=0;entryX=0.5;entryY=0;entryDx=0;entryDy=0;endArrow=none;endFill=0;fontSize=11;" parent="1" target="VVzJJM5CuwtTol1S2sW--24" edge="1">
          <mxGeometry relative="1" as="geometry">
            <mxPoint x="1050" y="80" as="sourcePoint" />
          </mxGeometry>
        </mxCell>
        <mxCell id="VVzJJM5CuwtTol1S2sW--23" style="edgeStyle=orthogonalEdgeStyle;rounded=0;html=1;exitX=0.5;exitY=1;exitDx=0;exitDy=0;endArrow=none;endFill=0;fontSize=11;" parent="1" source="VVzJJM5CuwtTol1S2sW--24" edge="1">
          <mxGeometry relative="1" as="geometry">
            <mxPoint x="1050" y="200" as="targetPoint" />
          </mxGeometry>
        </mxCell>
        <mxCell id="VVzJJM5CuwtTol1S2sW--24" value="C&lt;br style=&quot;font-size: 11px;&quot;&gt;places != len(visited[ant])" style="shape=loopLimit;whiteSpace=wrap;html=1;direction=east;fontSize=11;" parent="1" vertex="1">
          <mxGeometry x="950" y="90" width="200" height="60" as="geometry" />
        </mxCell>
        <mxCell id="VVzJJM5CuwtTol1S2sW--25" style="edgeStyle=orthogonalEdgeStyle;html=1;exitX=0.5;exitY=1;exitDx=0;exitDy=0;entryX=0.5;entryY=0;entryDx=0;entryDy=0;rounded=0;endArrow=none;endFill=0;fontSize=11;" parent="1" source="VVzJJM5CuwtTol1S2sW--26" target="VVzJJM5CuwtTol1S2sW--28" edge="1">
          <mxGeometry relative="1" as="geometry" />
        </mxCell>
        <mxCell id="VVzJJM5CuwtTol1S2sW--26" value="Массив вероятностей перехода из текущего города в непосещенный&lt;br style=&quot;font-size: 11px;&quot;&gt;pk" style="shape=process;whiteSpace=wrap;html=1;backgroundOutline=1;fontSize=11;" parent="1" vertex="1">
          <mxGeometry x="950" y="180" width="200" height="60" as="geometry" />
        </mxCell>
        <mxCell id="VVzJJM5CuwtTol1S2sW--27" style="edgeStyle=orthogonalEdgeStyle;rounded=0;html=1;exitX=0.5;exitY=1;exitDx=0;exitDy=0;entryX=0.5;entryY=0;entryDx=0;entryDy=0;endArrow=none;endFill=0;fontSize=11;" parent="1" source="VVzJJM5CuwtTol1S2sW--28" target="VVzJJM5CuwtTol1S2sW--30" edge="1">
          <mxGeometry relative="1" as="geometry" />
        </mxCell>
        <mxCell id="VVzJJM5CuwtTol1S2sW--28" value="chosen_place =&amp;nbsp;&lt;br style=&quot;font-size: 11px;&quot;&gt;&lt;span style=&quot;text-align: left; font-size: 11px;&quot;&gt;choose_next_place(pk)&lt;/span&gt;&amp;nbsp;" style="shape=process;whiteSpace=wrap;html=1;backgroundOutline=1;fontSize=11;" parent="1" vertex="1">
          <mxGeometry x="950" y="270" width="200" height="60" as="geometry" />
        </mxCell>
        <mxCell id="VVzJJM5CuwtTol1S2sW--29" style="edgeStyle=orthogonalEdgeStyle;rounded=0;html=1;exitX=0.5;exitY=1;exitDx=0;exitDy=0;entryX=0.5;entryY=1;entryDx=0;entryDy=0;endArrow=none;endFill=0;fontSize=11;" parent="1" source="VVzJJM5CuwtTol1S2sW--30" target="VVzJJM5CuwtTol1S2sW--32" edge="1">
          <mxGeometry relative="1" as="geometry" />
        </mxCell>
        <mxCell id="VVzJJM5CuwtTol1S2sW--30" value="&lt;font style=&quot;font-size: 11px;&quot;&gt;Добавить выбранный город в конец &lt;br style=&quot;font-size: 11px;&quot;&gt;массива посещенных городов&lt;br style=&quot;font-size: 11px;&quot;&gt;для текущего муравья&lt;/font&gt;" style="html=1;dashed=0;whitespace=wrap;fontSize=11;" parent="1" vertex="1">
          <mxGeometry x="950" y="360" width="200" height="60" as="geometry" />
        </mxCell>
        <mxCell id="VVzJJM5CuwtTol1S2sW--31" style="edgeStyle=orthogonalEdgeStyle;rounded=0;orthogonalLoop=1;jettySize=auto;html=1;exitX=0.5;exitY=0;exitDx=0;exitDy=0;entryX=0.5;entryY=0;entryDx=0;entryDy=0;endArrow=none;endFill=0;" parent="1" source="VVzJJM5CuwtTol1S2sW--32" target="VVzJJM5CuwtTol1S2sW--34" edge="1">
          <mxGeometry relative="1" as="geometry" />
        </mxCell>
        <mxCell id="VVzJJM5CuwtTol1S2sW--32" value="C&lt;br style=&quot;font-size: 11px;&quot;&gt;Конец по places" style="shape=loopLimit;whiteSpace=wrap;html=1;strokeWidth=1;direction=west;fontSize=11;" parent="1" vertex="1">
          <mxGeometry x="950" y="450" width="200" height="60" as="geometry" />
        </mxCell>
        <mxCell id="VVzJJM5CuwtTol1S2sW--33" style="edgeStyle=orthogonalEdgeStyle;rounded=0;html=1;exitX=0.5;exitY=1;exitDx=0;exitDy=0;entryX=0.5;entryY=0;entryDx=0;entryDy=0;endArrow=none;endFill=0;fontSize=11;" parent="1" source="VVzJJM5CuwtTol1S2sW--34" target="VVzJJM5CuwtTol1S2sW--40" edge="1">
          <mxGeometry relative="1" as="geometry" />
        </mxCell>
        <mxCell id="VVzJJM5CuwtTol1S2sW--34" value="Вычислить количество затраченного топлива" style="shape=process;whiteSpace=wrap;html=1;backgroundOutline=1;fontSize=11;" parent="1" vertex="1">
          <mxGeometry x="950" y="540" width="200" height="60" as="geometry" />
        </mxCell>
        <mxCell id="VVzJJM5CuwtTol1S2sW--35" style="edgeStyle=orthogonalEdgeStyle;rounded=0;html=1;exitX=0.5;exitY=0;exitDx=0;exitDy=0;entryX=0.5;entryY=0;entryDx=0;entryDy=0;endArrow=none;endFill=0;fontSize=11;" parent="1" source="VVzJJM5CuwtTol1S2sW--36" target="VVzJJM5CuwtTol1S2sW--44" edge="1">
          <mxGeometry relative="1" as="geometry" />
        </mxCell>
        <mxCell id="VVzJJM5CuwtTol1S2sW--36" value="B&lt;br&gt;Конец по ants" style="shape=loopLimit;whiteSpace=wrap;html=1;strokeWidth=1;direction=west;fontSize=11;" parent="1" vertex="1">
          <mxGeometry x="950" y="1100" width="200" height="60" as="geometry" />
        </mxCell>
        <mxCell id="VVzJJM5CuwtTol1S2sW--37" value="Конец" style="html=1;dashed=0;whitespace=wrap;shape=mxgraph.dfd.start;fontSize=11;" parent="1" vertex="1">
          <mxGeometry x="950" y="1370" width="200" height="60" as="geometry" />
        </mxCell>
        <mxCell id="VVzJJM5CuwtTol1S2sW--38" style="edgeStyle=orthogonalEdgeStyle;rounded=0;orthogonalLoop=1;jettySize=auto;html=1;exitX=1;exitY=0.5;exitDx=0;exitDy=0;endArrow=none;endFill=0;fontSize=11;" parent="1" source="VVzJJM5CuwtTol1S2sW--40" edge="1">
          <mxGeometry relative="1" as="geometry">
            <mxPoint x="1210" y="740" as="targetPoint" />
          </mxGeometry>
        </mxCell>
        <mxCell id="VVzJJM5CuwtTol1S2sW--39" style="edgeStyle=orthogonalEdgeStyle;rounded=0;orthogonalLoop=1;jettySize=auto;html=1;exitX=0;exitY=0.5;exitDx=0;exitDy=0;" parent="1" source="VVzJJM5CuwtTol1S2sW--40" target="VVzJJM5CuwtTol1S2sW--50" edge="1">
          <mxGeometry relative="1" as="geometry" />
        </mxCell>
        <mxCell id="VVzJJM5CuwtTol1S2sW--40" value="cur_length &amp;lt; min_length&lt;br&gt;flag = 0" style="shape=rhombus;html=1;dashed=0;whitespace=wrap;perimeter=rhombusPerimeter;fontSize=11;" parent="1" vertex="1">
          <mxGeometry x="950" y="630" width="200" height="60" as="geometry" />
        </mxCell>
        <mxCell id="VVzJJM5CuwtTol1S2sW--41" value="Да" style="text;html=1;align=center;verticalAlign=middle;resizable=0;points=[];autosize=1;strokeColor=none;fontSize=11;" parent="1" vertex="1">
          <mxGeometry x="1150" y="630" width="40" height="30" as="geometry" />
        </mxCell>
        <mxCell id="VVzJJM5CuwtTol1S2sW--42" value="min_dist = cur_dist" style="html=1;dashed=0;whitespace=wrap;fontSize=11;" parent="1" vertex="1">
          <mxGeometry x="1110" y="720" width="200" height="60" as="geometry" />
        </mxCell>
        <mxCell id="VVzJJM5CuwtTol1S2sW--43" style="edgeStyle=orthogonalEdgeStyle;rounded=0;html=1;exitX=0.5;exitY=1;exitDx=0;exitDy=0;entryX=0.5;entryY=1;entryDx=0;entryDy=0;endArrow=none;endFill=0;fontSize=11;" parent="1" source="VVzJJM5CuwtTol1S2sW--44" target="VVzJJM5CuwtTol1S2sW--46" edge="1">
          <mxGeometry relative="1" as="geometry" />
        </mxCell>
        <mxCell id="VVzJJM5CuwtTol1S2sW--44" value="Обновить матрицу феромонов" style="shape=process;whiteSpace=wrap;html=1;backgroundOutline=1;fontSize=11;" parent="1" vertex="1">
          <mxGeometry x="950" y="1190" width="200" height="60" as="geometry" />
        </mxCell>
        <mxCell id="VVzJJM5CuwtTol1S2sW--45" style="edgeStyle=orthogonalEdgeStyle;rounded=0;html=1;exitX=0.5;exitY=0;exitDx=0;exitDy=0;endArrow=none;endFill=0;entryX=0.5;entryY=0.5;entryDx=0;entryDy=-30;entryPerimeter=0;fontSize=11;" parent="1" source="VVzJJM5CuwtTol1S2sW--46" target="VVzJJM5CuwtTol1S2sW--37" edge="1">
          <mxGeometry relative="1" as="geometry">
            <mxPoint x="1050" y="1400" as="targetPoint" />
          </mxGeometry>
        </mxCell>
        <mxCell id="VVzJJM5CuwtTol1S2sW--46" value="A&lt;br&gt;Конец по i" style="shape=loopLimit;whiteSpace=wrap;html=1;strokeWidth=1;direction=west;fontSize=11;" parent="1" vertex="1">
          <mxGeometry x="950" y="1280" width="200" height="60" as="geometry" />
        </mxCell>
        <mxCell id="VVzJJM5CuwtTol1S2sW--47" value="" style="edgeStyle=orthogonalEdgeStyle;rounded=0;orthogonalLoop=1;jettySize=auto;html=1;endArrow=none;endFill=0;" parent="1" source="VVzJJM5CuwtTol1S2sW--48" target="VVzJJM5CuwtTol1S2sW--24" edge="1">
          <mxGeometry relative="1" as="geometry" />
        </mxCell>
        <mxCell id="VVzJJM5CuwtTol1S2sW--48" value="A" style="shape=ellipse;html=1;dashed=0;whitespace=wrap;aspect=fixed;perimeter=ellipsePerimeter;fontSize=11;" parent="1" vertex="1">
          <mxGeometry x="1025" y="10" width="50" height="50" as="geometry" />
        </mxCell>
        <mxCell id="VVzJJM5CuwtTol1S2sW--49" style="edgeStyle=orthogonalEdgeStyle;rounded=0;orthogonalLoop=1;jettySize=auto;html=1;exitX=0.5;exitY=1;exitDx=0;exitDy=0;entryX=0.5;entryY=0;entryDx=0;entryDy=0;endArrow=none;endFill=0;" parent="1" source="VVzJJM5CuwtTol1S2sW--50" edge="1">
          <mxGeometry relative="1" as="geometry">
            <mxPoint x="925" y="825" as="targetPoint" />
          </mxGeometry>
        </mxCell>
        <mxCell id="VVzJJM5CuwtTol1S2sW--50" value="cur_length &amp;lt; min_ldist&lt;br&gt;max_visite_cities &amp;lt; cur_visit" style="shape=rhombus;html=1;dashed=0;whitespace=wrap;perimeter=rhombusPerimeter;fontSize=11;" parent="1" vertex="1">
          <mxGeometry x="825" y="710" width="200" height="70" as="geometry" />
        </mxCell>
        <mxCell id="VVzJJM5CuwtTol1S2sW--51" value="" style="edgeStyle=orthogonalEdgeStyle;rounded=0;orthogonalLoop=1;jettySize=auto;html=1;endArrow=none;endFill=0;" parent="1" source="VVzJJM5CuwtTol1S2sW--52" target="VVzJJM5CuwtTol1S2sW--133" edge="1">
          <mxGeometry relative="1" as="geometry" />
        </mxCell>
        <mxCell id="VVzJJM5CuwtTol1S2sW--52" value="min_dist = cur_dist" style="html=1;dashed=0;whitespace=wrap;fontSize=11;" parent="1" vertex="1">
          <mxGeometry x="825" y="810" width="200" height="60" as="geometry" />
        </mxCell>
        <mxCell id="VVzJJM5CuwtTol1S2sW--53" style="edgeStyle=none;html=1;exitX=0.5;exitY=0.5;exitDx=0;exitDy=30;exitPerimeter=0;entryX=0.5;entryY=0;entryDx=0;entryDy=0;endArrow=none;endFill=0;" parent="1" source="VVzJJM5CuwtTol1S2sW--54" target="VVzJJM5CuwtTol1S2sW--56" edge="1">
          <mxGeometry relative="1" as="geometry" />
        </mxCell>
        <mxCell id="VVzJJM5CuwtTol1S2sW--54" value="Начало" style="html=1;dashed=0;whitespace=wrap;shape=mxgraph.dfd.start" parent="1" vertex="1">
          <mxGeometry x="1730" y="110" width="200" height="60" as="geometry" />
        </mxCell>
        <mxCell id="VVzJJM5CuwtTol1S2sW--55" style="edgeStyle=none;html=1;exitX=0.5;exitY=1;exitDx=0;exitDy=0;entryX=0.5;entryY=0;entryDx=0;entryDy=0;endArrow=none;endFill=0;" parent="1" source="VVzJJM5CuwtTol1S2sW--56" target="VVzJJM5CuwtTol1S2sW--58" edge="1">
          <mxGeometry relative="1" as="geometry" />
        </mxCell>
        <mxCell id="VVzJJM5CuwtTol1S2sW--56" value="Инициализация массива&lt;br&gt;вероятных переходов (pk)&lt;br&gt;по кол-ву городов" style="html=1;dashed=0;whitespace=wrap;" parent="1" vertex="1">
          <mxGeometry x="1730" y="200" width="200" height="60" as="geometry" />
        </mxCell>
        <mxCell id="VVzJJM5CuwtTol1S2sW--57" style="edgeStyle=none;html=1;exitX=0.5;exitY=1;exitDx=0;exitDy=0;entryX=0.5;entryY=0;entryDx=0;entryDy=0;endArrow=none;endFill=0;" parent="1" source="VVzJJM5CuwtTol1S2sW--58" target="VVzJJM5CuwtTol1S2sW--61" edge="1">
          <mxGeometry relative="1" as="geometry" />
        </mxCell>
        <mxCell id="VVzJJM5CuwtTol1S2sW--58" value="A&lt;br&gt;place &amp;lt; len(places)" style="shape=loopLimit;whiteSpace=wrap;html=1;direction=east" parent="1" vertex="1">
          <mxGeometry x="1730" y="290" width="200" height="60" as="geometry" />
        </mxCell>
        <mxCell id="VVzJJM5CuwtTol1S2sW--59" style="edgeStyle=orthogonalEdgeStyle;rounded=0;orthogonalLoop=1;jettySize=auto;html=1;exitX=1;exitY=0.5;exitDx=0;exitDy=0;endArrow=none;endFill=0;" parent="1" source="VVzJJM5CuwtTol1S2sW--61" edge="1">
          <mxGeometry relative="1" as="geometry">
            <mxPoint x="1990" y="470" as="targetPoint" />
          </mxGeometry>
        </mxCell>
        <mxCell id="VVzJJM5CuwtTol1S2sW--60" style="edgeStyle=orthogonalEdgeStyle;html=1;exitX=0;exitY=0.5;exitDx=0;exitDy=0;entryX=0.5;entryY=0;entryDx=0;entryDy=0;endArrow=classic;endFill=1;rounded=0;" parent="1" source="VVzJJM5CuwtTol1S2sW--61" target="VVzJJM5CuwtTol1S2sW--68" edge="1">
          <mxGeometry relative="1" as="geometry" />
        </mxCell>
        <mxCell id="VVzJJM5CuwtTol1S2sW--61" value="place не в массиве &lt;br&gt;visited" style="shape=rhombus;html=1;dashed=0;whitespace=wrap;perimeter=rhombusPerimeter;" parent="1" vertex="1">
          <mxGeometry x="1730" y="380" width="200" height="60" as="geometry" />
        </mxCell>
        <mxCell id="VVzJJM5CuwtTol1S2sW--62" value="Да" style="text;html=1;align=center;verticalAlign=middle;resizable=0;points=[];autosize=1;strokeColor=none;" parent="1" vertex="1">
          <mxGeometry x="1940" y="385" width="30" height="20" as="geometry" />
        </mxCell>
        <mxCell id="VVzJJM5CuwtTol1S2sW--63" style="edgeStyle=orthogonalEdgeStyle;rounded=0;html=1;exitX=0.5;exitY=1;exitDx=0;exitDy=0;entryX=0.5;entryY=0;entryDx=0;entryDy=0;endArrow=none;endFill=0;" parent="1" source="VVzJJM5CuwtTol1S2sW--64" target="VVzJJM5CuwtTol1S2sW--66" edge="1">
          <mxGeometry relative="1" as="geometry" />
        </mxCell>
        <mxCell id="VVzJJM5CuwtTol1S2sW--64" value="ant_place = visited[-1]" style="html=1;dashed=0;whitespace=wrap;" parent="1" vertex="1">
          <mxGeometry x="1890" y="470" width="200" height="60" as="geometry" />
        </mxCell>
        <mxCell id="VVzJJM5CuwtTol1S2sW--65" style="edgeStyle=orthogonalEdgeStyle;rounded=0;html=1;exitX=0.5;exitY=1;exitDx=0;exitDy=0;entryX=0.5;entryY=1;entryDx=0;entryDy=0;endArrow=none;endFill=0;" parent="1" source="VVzJJM5CuwtTol1S2sW--66" target="VVzJJM5CuwtTol1S2sW--70" edge="1">
          <mxGeometry relative="1" as="geometry">
            <Array as="points">
              <mxPoint x="1990" y="650" />
              <mxPoint x="1830" y="650" />
            </Array>
          </mxGeometry>
        </mxCell>
        <mxCell id="VVzJJM5CuwtTol1S2sW--66" value="pk[place] = &lt;br&gt;(pheromones[ant_place][place] ** &lt;br&gt;alpha) * (visibility[ant_place][place]&lt;br&gt;** beta)" style="html=1;dashed=0;whitespace=wrap;" parent="1" vertex="1">
          <mxGeometry x="1890" y="560" width="200" height="60" as="geometry" />
        </mxCell>
        <mxCell id="VVzJJM5CuwtTol1S2sW--67" style="edgeStyle=orthogonalEdgeStyle;rounded=0;html=1;exitX=0.5;exitY=1;exitDx=0;exitDy=0;endArrow=none;endFill=0;" parent="1" source="VVzJJM5CuwtTol1S2sW--68" edge="1">
          <mxGeometry relative="1" as="geometry">
            <mxPoint x="1830" y="650" as="targetPoint" />
            <Array as="points">
              <mxPoint x="1670" y="650" />
            </Array>
          </mxGeometry>
        </mxCell>
        <mxCell id="VVzJJM5CuwtTol1S2sW--68" value="pk[place] = 0" style="html=1;dashed=0;whitespace=wrap;" parent="1" vertex="1">
          <mxGeometry x="1570" y="470" width="200" height="60" as="geometry" />
        </mxCell>
        <mxCell id="VVzJJM5CuwtTol1S2sW--69" style="edgeStyle=orthogonalEdgeStyle;rounded=0;html=1;exitX=0.5;exitY=0;exitDx=0;exitDy=0;entryX=0.5;entryY=0;entryDx=0;entryDy=0;endArrow=none;endFill=0;" parent="1" source="VVzJJM5CuwtTol1S2sW--70" target="VVzJJM5CuwtTol1S2sW--73" edge="1">
          <mxGeometry relative="1" as="geometry" />
        </mxCell>
        <mxCell id="VVzJJM5CuwtTol1S2sW--70" value="A&lt;br&gt;Конец по place" style="shape=loopLimit;whiteSpace=wrap;html=1;strokeWidth=1;direction=west;" parent="1" vertex="1">
          <mxGeometry x="1730" y="690" width="200" height="60" as="geometry" />
        </mxCell>
        <mxCell id="VVzJJM5CuwtTol1S2sW--71" value="Конец" style="html=1;dashed=0;whitespace=wrap;shape=mxgraph.dfd.start" parent="1" vertex="1">
          <mxGeometry x="1730" y="1140" width="200" height="60" as="geometry" />
        </mxCell>
        <mxCell id="VVzJJM5CuwtTol1S2sW--72" style="edgeStyle=orthogonalEdgeStyle;rounded=0;html=1;exitX=0.5;exitY=1;exitDx=0;exitDy=0;entryX=0.5;entryY=0;entryDx=0;entryDy=0;endArrow=none;endFill=0;" parent="1" source="VVzJJM5CuwtTol1S2sW--73" target="VVzJJM5CuwtTol1S2sW--75" edge="1">
          <mxGeometry relative="1" as="geometry" />
        </mxCell>
        <mxCell id="VVzJJM5CuwtTol1S2sW--73" value="Вычислить сумму элементов массива pk&amp;nbsp;&lt;br&gt;" style="shape=process;whiteSpace=wrap;html=1;backgroundOutline=1;" parent="1" vertex="1">
          <mxGeometry x="1730" y="780" width="200" height="60" as="geometry" />
        </mxCell>
        <mxCell id="VVzJJM5CuwtTol1S2sW--74" style="edgeStyle=orthogonalEdgeStyle;rounded=0;html=1;exitX=0.5;exitY=1;exitDx=0;exitDy=0;entryX=0.5;entryY=0;entryDx=0;entryDy=0;endArrow=none;endFill=0;" parent="1" source="VVzJJM5CuwtTol1S2sW--75" target="VVzJJM5CuwtTol1S2sW--77" edge="1">
          <mxGeometry relative="1" as="geometry" />
        </mxCell>
        <mxCell id="VVzJJM5CuwtTol1S2sW--75" value="B&lt;br&gt;place &amp;lt; len(places)" style="shape=loopLimit;whiteSpace=wrap;html=1;direction=east" parent="1" vertex="1">
          <mxGeometry x="1730" y="870" width="200" height="60" as="geometry" />
        </mxCell>
        <mxCell id="VVzJJM5CuwtTol1S2sW--76" style="edgeStyle=orthogonalEdgeStyle;rounded=0;html=1;exitX=0.5;exitY=1;exitDx=0;exitDy=0;entryX=0.5;entryY=1;entryDx=0;entryDy=0;endArrow=none;endFill=0;" parent="1" source="VVzJJM5CuwtTol1S2sW--77" target="VVzJJM5CuwtTol1S2sW--79" edge="1">
          <mxGeometry relative="1" as="geometry" />
        </mxCell>
        <mxCell id="VVzJJM5CuwtTol1S2sW--77" value="pk[place] /= sum_pk" style="html=1;dashed=0;whitespace=wrap;" parent="1" vertex="1">
          <mxGeometry x="1730" y="960" width="200" height="60" as="geometry" />
        </mxCell>
        <mxCell id="VVzJJM5CuwtTol1S2sW--78" style="edgeStyle=orthogonalEdgeStyle;rounded=0;html=1;exitX=0.5;exitY=0;exitDx=0;exitDy=0;entryX=0.5;entryY=0.5;entryDx=0;entryDy=-30;entryPerimeter=0;endArrow=none;endFill=0;" parent="1" source="VVzJJM5CuwtTol1S2sW--79" target="VVzJJM5CuwtTol1S2sW--71" edge="1">
          <mxGeometry relative="1" as="geometry" />
        </mxCell>
        <mxCell id="VVzJJM5CuwtTol1S2sW--79" value="B&lt;br&gt;Конец по place" style="shape=loopLimit;whiteSpace=wrap;html=1;strokeWidth=1;direction=west;" parent="1" vertex="1">
          <mxGeometry x="1730" y="1050" width="200" height="60" as="geometry" />
        </mxCell>
        <mxCell id="VVzJJM5CuwtTol1S2sW--80" style="edgeStyle=none;html=1;exitX=0.5;exitY=0.5;exitDx=0;exitDy=30;exitPerimeter=0;entryX=0.5;entryY=0;entryDx=0;entryDy=0;endArrow=none;endFill=0;" parent="1" source="VVzJJM5CuwtTol1S2sW--81" target="VVzJJM5CuwtTol1S2sW--83" edge="1">
          <mxGeometry relative="1" as="geometry" />
        </mxCell>
        <mxCell id="VVzJJM5CuwtTol1S2sW--81" value="Начало" style="html=1;dashed=0;whitespace=wrap;shape=mxgraph.dfd.start" parent="1" vertex="1">
          <mxGeometry x="2250" y="120" width="200" height="60" as="geometry" />
        </mxCell>
        <mxCell id="VVzJJM5CuwtTol1S2sW--82" style="edgeStyle=none;html=1;exitX=0.5;exitY=1;exitDx=0;exitDy=0;entryX=0.5;entryY=0;entryDx=0;entryDy=0;endArrow=none;endFill=0;" parent="1" source="VVzJJM5CuwtTol1S2sW--83" target="VVzJJM5CuwtTol1S2sW--85" edge="1">
          <mxGeometry relative="1" as="geometry" />
        </mxCell>
        <mxCell id="VVzJJM5CuwtTol1S2sW--83" value="ants = places" style="html=1;dashed=0;whitespace=wrap;" parent="1" vertex="1">
          <mxGeometry x="2250" y="210" width="200" height="60" as="geometry" />
        </mxCell>
        <mxCell id="VVzJJM5CuwtTol1S2sW--84" style="edgeStyle=orthogonalEdgeStyle;html=1;exitX=0.5;exitY=1;exitDx=0;exitDy=0;entryX=0.5;entryY=0;entryDx=0;entryDy=0;rounded=0;endArrow=none;endFill=0;" parent="1" source="VVzJJM5CuwtTol1S2sW--85" target="VVzJJM5CuwtTol1S2sW--98" edge="1">
          <mxGeometry relative="1" as="geometry" />
        </mxCell>
        <mxCell id="VVzJJM5CuwtTol1S2sW--85" value="A&lt;br&gt;i &amp;lt; len(places)" style="shape=loopLimit;whiteSpace=wrap;html=1;direction=east" parent="1" vertex="1">
          <mxGeometry x="2250" y="300" width="200" height="60" as="geometry" />
        </mxCell>
        <mxCell id="VVzJJM5CuwtTol1S2sW--86" style="edgeStyle=orthogonalEdgeStyle;rounded=0;orthogonalLoop=1;jettySize=auto;html=1;exitX=1;exitY=0.5;exitDx=0;exitDy=0;endArrow=none;endFill=0;" parent="1" source="VVzJJM5CuwtTol1S2sW--87" edge="1">
          <mxGeometry relative="1" as="geometry">
            <mxPoint x="2510" y="1190" as="targetPoint" />
          </mxGeometry>
        </mxCell>
        <mxCell id="VVzJJM5CuwtTol1S2sW--87" value="pheromones[i][j] &amp;lt;&lt;br&gt;MIN_PHEROMONE" style="shape=rhombus;html=1;dashed=0;whitespace=wrap;perimeter=rhombusPerimeter;" parent="1" vertex="1">
          <mxGeometry x="2250" y="1110" width="200" height="60" as="geometry" />
        </mxCell>
        <mxCell id="VVzJJM5CuwtTol1S2sW--88" value="Да" style="text;html=1;align=center;verticalAlign=middle;resizable=0;points=[];autosize=1;strokeColor=none;" parent="1" vertex="1">
          <mxGeometry x="2435" y="1100" width="30" height="20" as="geometry" />
        </mxCell>
        <mxCell id="VVzJJM5CuwtTol1S2sW--89" value="pheromones[i][j] =&lt;br&gt;MIN_PHEROMONE" style="html=1;dashed=0;whitespace=wrap;" parent="1" vertex="1">
          <mxGeometry x="2410" y="1190" width="200" height="60" as="geometry" />
        </mxCell>
        <mxCell id="VVzJJM5CuwtTol1S2sW--90" style="edgeStyle=orthogonalEdgeStyle;rounded=0;html=1;exitX=0.5;exitY=1;exitDx=0;exitDy=0;entryX=0.5;entryY=1;entryDx=0;entryDy=0;endArrow=classic;endFill=1;" parent="1" source="VVzJJM5CuwtTol1S2sW--89" target="VVzJJM5CuwtTol1S2sW--93" edge="1">
          <mxGeometry relative="1" as="geometry">
            <Array as="points">
              <mxPoint x="2510" y="1275" />
              <mxPoint x="2350" y="1275" />
            </Array>
            <mxPoint x="2510" y="1340" as="sourcePoint" />
          </mxGeometry>
        </mxCell>
        <mxCell id="VVzJJM5CuwtTol1S2sW--91" style="edgeStyle=orthogonalEdgeStyle;rounded=0;html=1;exitX=0;exitY=0.5;exitDx=0;exitDy=0;endArrow=none;endFill=0;" parent="1" source="VVzJJM5CuwtTol1S2sW--87" edge="1">
          <mxGeometry relative="1" as="geometry">
            <mxPoint x="2350" y="1370" as="targetPoint" />
            <Array as="points">
              <mxPoint x="2190" y="1140" />
              <mxPoint x="2190" y="1275" />
              <mxPoint x="2350" y="1275" />
            </Array>
            <mxPoint x="2190" y="1250" as="sourcePoint" />
          </mxGeometry>
        </mxCell>
        <mxCell id="VVzJJM5CuwtTol1S2sW--92" style="edgeStyle=orthogonalEdgeStyle;rounded=0;html=1;exitX=0.5;exitY=0;exitDx=0;exitDy=0;entryX=0.5;entryY=1;entryDx=0;entryDy=0;endArrow=none;endFill=0;" parent="1" source="VVzJJM5CuwtTol1S2sW--93" target="VVzJJM5CuwtTol1S2sW--96" edge="1">
          <mxGeometry relative="1" as="geometry" />
        </mxCell>
        <mxCell id="VVzJJM5CuwtTol1S2sW--93" value="B&lt;br&gt;Конец по j" style="shape=loopLimit;whiteSpace=wrap;html=1;strokeWidth=1;direction=west;" parent="1" vertex="1">
          <mxGeometry x="2250" y="1310" width="200" height="60" as="geometry" />
        </mxCell>
        <mxCell id="VVzJJM5CuwtTol1S2sW--94" value="Конец" style="html=1;dashed=0;whitespace=wrap;shape=mxgraph.dfd.start" parent="1" vertex="1">
          <mxGeometry x="2250" y="1485" width="200" height="60" as="geometry" />
        </mxCell>
        <mxCell id="VVzJJM5CuwtTol1S2sW--95" style="edgeStyle=orthogonalEdgeStyle;rounded=0;html=1;exitX=0.5;exitY=0;exitDx=0;exitDy=0;entryX=0.5;entryY=0.5;entryDx=0;entryDy=-30;entryPerimeter=0;endArrow=none;endFill=0;" parent="1" source="VVzJJM5CuwtTol1S2sW--96" target="VVzJJM5CuwtTol1S2sW--94" edge="1">
          <mxGeometry relative="1" as="geometry" />
        </mxCell>
        <mxCell id="VVzJJM5CuwtTol1S2sW--96" value="B&lt;br style=&quot;border-color: var(--border-color);&quot;&gt;Конец по i" style="shape=loopLimit;whiteSpace=wrap;html=1;strokeWidth=1;direction=west;" parent="1" vertex="1">
          <mxGeometry x="2250" y="1395" width="200" height="60" as="geometry" />
        </mxCell>
        <mxCell id="VVzJJM5CuwtTol1S2sW--97" style="edgeStyle=orthogonalEdgeStyle;rounded=0;html=1;exitX=0.5;exitY=1;exitDx=0;exitDy=0;entryX=0.5;entryY=0;entryDx=0;entryDy=0;endArrow=none;endFill=0;" parent="1" source="VVzJJM5CuwtTol1S2sW--98" target="VVzJJM5CuwtTol1S2sW--100" edge="1">
          <mxGeometry relative="1" as="geometry" />
        </mxCell>
        <mxCell id="VVzJJM5CuwtTol1S2sW--98" value="B&lt;br style=&quot;border-color: var(--border-color);&quot;&gt;j &amp;lt; len(places)" style="shape=loopLimit;whiteSpace=wrap;html=1;direction=east" parent="1" vertex="1">
          <mxGeometry x="2250" y="390" width="200" height="60" as="geometry" />
        </mxCell>
        <mxCell id="VVzJJM5CuwtTol1S2sW--99" style="edgeStyle=orthogonalEdgeStyle;rounded=0;html=1;exitX=0.5;exitY=1;exitDx=0;exitDy=0;entryX=0.5;entryY=0;entryDx=0;entryDy=0;endArrow=none;endFill=0;" parent="1" source="VVzJJM5CuwtTol1S2sW--100" target="VVzJJM5CuwtTol1S2sW--102" edge="1">
          <mxGeometry relative="1" as="geometry" />
        </mxCell>
        <mxCell id="VVzJJM5CuwtTol1S2sW--100" value="delta_pheromones = 0" style="html=1;dashed=0;whitespace=wrap;" parent="1" vertex="1">
          <mxGeometry x="2250" y="480" width="200" height="60" as="geometry" />
        </mxCell>
        <mxCell id="VVzJJM5CuwtTol1S2sW--101" style="edgeStyle=orthogonalEdgeStyle;rounded=0;html=1;exitX=0.5;exitY=1;exitDx=0;exitDy=0;entryX=0.5;entryY=0;entryDx=0;entryDy=0;endArrow=none;endFill=0;" parent="1" source="VVzJJM5CuwtTol1S2sW--102" target="VVzJJM5CuwtTol1S2sW--104" edge="1">
          <mxGeometry relative="1" as="geometry" />
        </mxCell>
        <mxCell id="VVzJJM5CuwtTol1S2sW--102" value="C&lt;br style=&quot;border-color: var(--border-color);&quot;&gt;ant &amp;lt; len(ants)" style="shape=loopLimit;whiteSpace=wrap;html=1;direction=east" parent="1" vertex="1">
          <mxGeometry x="2250" y="570" width="200" height="60" as="geometry" />
        </mxCell>
        <mxCell id="VVzJJM5CuwtTol1S2sW--103" style="edgeStyle=orthogonalEdgeStyle;rounded=0;html=1;exitX=0.5;exitY=1;exitDx=0;exitDy=0;entryX=0.5;entryY=0;entryDx=0;entryDy=0;endArrow=none;endFill=0;" parent="1" source="VVzJJM5CuwtTol1S2sW--104" target="VVzJJM5CuwtTol1S2sW--106" edge="1">
          <mxGeometry relative="1" as="geometry" />
        </mxCell>
        <mxCell id="VVzJJM5CuwtTol1S2sW--104" value="length = calc_length(matrix, viisited[ant])" style="shape=process;whiteSpace=wrap;html=1;backgroundOutline=1;" parent="1" vertex="1">
          <mxGeometry x="2250" y="660" width="200" height="60" as="geometry" />
        </mxCell>
        <mxCell id="VVzJJM5CuwtTol1S2sW--105" style="edgeStyle=orthogonalEdgeStyle;rounded=0;html=1;exitX=0.5;exitY=1;exitDx=0;exitDy=0;entryX=0.5;entryY=1;entryDx=0;entryDy=0;endArrow=none;endFill=0;" parent="1" source="VVzJJM5CuwtTol1S2sW--106" target="VVzJJM5CuwtTol1S2sW--108" edge="1">
          <mxGeometry relative="1" as="geometry" />
        </mxCell>
        <mxCell id="VVzJJM5CuwtTol1S2sW--106" value="delta_pheromones += q / length" style="html=1;dashed=0;whitespace=wrap;" parent="1" vertex="1">
          <mxGeometry x="2250" y="750" width="200" height="60" as="geometry" />
        </mxCell>
        <mxCell id="VVzJJM5CuwtTol1S2sW--107" style="edgeStyle=orthogonalEdgeStyle;rounded=0;html=1;exitX=0.5;exitY=0;exitDx=0;exitDy=0;entryX=0.5;entryY=0;entryDx=0;entryDy=0;endArrow=none;endFill=0;" parent="1" source="VVzJJM5CuwtTol1S2sW--108" target="VVzJJM5CuwtTol1S2sW--110" edge="1">
          <mxGeometry relative="1" as="geometry" />
        </mxCell>
        <mxCell id="VVzJJM5CuwtTol1S2sW--108" value="C&lt;br&gt;Конец по ant" style="shape=loopLimit;whiteSpace=wrap;html=1;strokeWidth=1;direction=west;" parent="1" vertex="1">
          <mxGeometry x="2250" y="840" width="200" height="60" as="geometry" />
        </mxCell>
        <mxCell id="VVzJJM5CuwtTol1S2sW--109" style="edgeStyle=orthogonalEdgeStyle;rounded=0;orthogonalLoop=1;jettySize=auto;html=1;exitX=0.5;exitY=1;exitDx=0;exitDy=0;entryX=0.5;entryY=0;entryDx=0;entryDy=0;endArrow=none;endFill=0;" parent="1" source="VVzJJM5CuwtTol1S2sW--110" target="VVzJJM5CuwtTol1S2sW--140" edge="1">
          <mxGeometry relative="1" as="geometry" />
        </mxCell>
        <mxCell id="VVzJJM5CuwtTol1S2sW--110" value="pheromones[i][j] *= &lt;br&gt;(1 -&amp;nbsp;&lt;span style=&quot;text-align: left&quot;&gt;k_evaporation)&lt;/span&gt;&lt;span style=&quot;text-align: left&quot;&gt;&lt;br&gt;&lt;/span&gt;" style="html=1;dashed=0;whitespace=wrap;" parent="1" vertex="1">
          <mxGeometry x="2250" y="930" width="200" height="60" as="geometry" />
        </mxCell>
        <mxCell id="VVzJJM5CuwtTol1S2sW--111" style="edgeStyle=none;html=1;exitX=0.5;exitY=0.5;exitDx=0;exitDy=30;exitPerimeter=0;entryX=0.5;entryY=0;entryDx=0;entryDy=0;endArrow=none;endFill=0;" parent="1" source="VVzJJM5CuwtTol1S2sW--112" target="VVzJJM5CuwtTol1S2sW--114" edge="1">
          <mxGeometry relative="1" as="geometry" />
        </mxCell>
        <mxCell id="VVzJJM5CuwtTol1S2sW--112" value="Начало" style="html=1;dashed=0;whitespace=wrap;shape=mxgraph.dfd.start" parent="1" vertex="1">
          <mxGeometry x="195" y="60" width="200" height="60" as="geometry" />
        </mxCell>
        <mxCell id="VVzJJM5CuwtTol1S2sW--113" style="edgeStyle=orthogonalEdgeStyle;html=1;exitX=0.5;exitY=1;exitDx=0;exitDy=0;entryX=0.5;entryY=0;entryDx=0;entryDy=0;rounded=0;endArrow=none;endFill=0;" parent="1" source="VVzJJM5CuwtTol1S2sW--114" target="VVzJJM5CuwtTol1S2sW--121" edge="1">
          <mxGeometry relative="1" as="geometry" />
        </mxCell>
        <mxCell id="VVzJJM5CuwtTol1S2sW--114" value="posibility = random()" style="html=1;dashed=0;whitespace=wrap;" parent="1" vertex="1">
          <mxGeometry x="195" y="150" width="200" height="60" as="geometry" />
        </mxCell>
        <mxCell id="VVzJJM5CuwtTol1S2sW--115" style="edgeStyle=none;html=1;exitX=0.5;exitY=1;exitDx=0;exitDy=0;entryX=0.5;entryY=0;entryDx=0;entryDy=0;endArrow=none;endFill=0;" parent="1" source="VVzJJM5CuwtTol1S2sW--116" target="VVzJJM5CuwtTol1S2sW--123" edge="1">
          <mxGeometry relative="1" as="geometry">
            <mxPoint x="295" y="500" as="targetPoint" />
          </mxGeometry>
        </mxCell>
        <mxCell id="VVzJJM5CuwtTol1S2sW--116" value="A&amp;nbsp;&lt;br&gt;(choice &amp;lt; posibility) and&amp;nbsp;&lt;br&gt;(chosen_place &amp;lt; len(pk))" style="shape=loopLimit;whiteSpace=wrap;html=1;direction=east" parent="1" vertex="1">
          <mxGeometry x="195" y="420" width="200" height="60" as="geometry" />
        </mxCell>
        <mxCell id="VVzJJM5CuwtTol1S2sW--117" style="edgeStyle=orthogonalEdgeStyle;rounded=0;html=1;exitX=0.5;exitY=0;exitDx=0;exitDy=0;entryX=0.5;entryY=0.5;entryDx=0;entryDy=-30;entryPerimeter=0;endArrow=none;endFill=0;" parent="1" source="VVzJJM5CuwtTol1S2sW--118" target="VVzJJM5CuwtTol1S2sW--119" edge="1">
          <mxGeometry relative="1" as="geometry" />
        </mxCell>
        <mxCell id="VVzJJM5CuwtTol1S2sW--118" value="A&lt;br&gt;Конец по choice и chosen_place" style="shape=loopLimit;whiteSpace=wrap;html=1;strokeWidth=1;direction=west;" parent="1" vertex="1">
          <mxGeometry x="195" y="690" width="200" height="60" as="geometry" />
        </mxCell>
        <mxCell id="VVzJJM5CuwtTol1S2sW--119" value="Конец" style="html=1;dashed=0;whitespace=wrap;shape=mxgraph.dfd.start" parent="1" vertex="1">
          <mxGeometry x="195" y="780" width="200" height="60" as="geometry" />
        </mxCell>
        <mxCell id="VVzJJM5CuwtTol1S2sW--120" style="edgeStyle=orthogonalEdgeStyle;rounded=0;orthogonalLoop=1;jettySize=auto;html=1;exitX=0.5;exitY=1;exitDx=0;exitDy=0;entryX=0.5;entryY=0;entryDx=0;entryDy=0;endArrow=none;endFill=0;" parent="1" source="VVzJJM5CuwtTol1S2sW--121" target="VVzJJM5CuwtTol1S2sW--131" edge="1">
          <mxGeometry relative="1" as="geometry" />
        </mxCell>
        <mxCell id="VVzJJM5CuwtTol1S2sW--121" value="choice = 0" style="html=1;dashed=0;whitespace=wrap;" parent="1" vertex="1">
          <mxGeometry x="195" y="240" width="200" height="60" as="geometry" />
        </mxCell>
        <mxCell id="VVzJJM5CuwtTol1S2sW--122" style="edgeStyle=orthogonalEdgeStyle;html=1;exitX=0.5;exitY=1;exitDx=0;exitDy=0;entryX=0.5;entryY=0;entryDx=0;entryDy=0;rounded=0;endArrow=none;endFill=0;" parent="1" source="VVzJJM5CuwtTol1S2sW--123" target="VVzJJM5CuwtTol1S2sW--125" edge="1">
          <mxGeometry relative="1" as="geometry" />
        </mxCell>
        <mxCell id="VVzJJM5CuwtTol1S2sW--123" value="choice += pk[chosen_place]" style="html=1;dashed=0;whitespace=wrap;" parent="1" vertex="1">
          <mxGeometry x="195" y="510" width="200" height="60" as="geometry" />
        </mxCell>
        <mxCell id="VVzJJM5CuwtTol1S2sW--124" style="edgeStyle=orthogonalEdgeStyle;rounded=0;html=1;exitX=0.5;exitY=1;exitDx=0;exitDy=0;entryX=0.5;entryY=1;entryDx=0;entryDy=0;endArrow=none;endFill=0;" parent="1" source="VVzJJM5CuwtTol1S2sW--125" target="VVzJJM5CuwtTol1S2sW--118" edge="1">
          <mxGeometry relative="1" as="geometry" />
        </mxCell>
        <mxCell id="VVzJJM5CuwtTol1S2sW--125" value="chosen_place += 1" style="html=1;dashed=0;whitespace=wrap;" parent="1" vertex="1">
          <mxGeometry x="195" y="600" width="200" height="60" as="geometry" />
        </mxCell>
        <mxCell id="VVzJJM5CuwtTol1S2sW--126" value="" style="edgeStyle=orthogonalEdgeStyle;rounded=0;orthogonalLoop=1;jettySize=auto;html=1;endArrow=none;endFill=0;" parent="1" source="VVzJJM5CuwtTol1S2sW--127" target="VVzJJM5CuwtTol1S2sW--21" edge="1">
          <mxGeometry relative="1" as="geometry" />
        </mxCell>
        <mxCell id="VVzJJM5CuwtTol1S2sW--127" value="&lt;br style=&quot;border-color: var(--border-color); font-size: 11px;&quot;&gt;&lt;span style=&quot;border-color: var(--border-color); font-size: 11px;&quot;&gt;min_dist = inf&lt;br style=&quot;font-size: 11px;&quot;&gt;&lt;/span&gt;" style="html=1;dashed=0;whitespace=wrap;fontSize=11;" parent="1" vertex="1">
          <mxGeometry x="540" y="300" width="200" height="60" as="geometry" />
        </mxCell>
        <mxCell id="VVzJJM5CuwtTol1S2sW--128" value="" style="edgeStyle=orthogonalEdgeStyle;rounded=0;orthogonalLoop=1;jettySize=auto;html=1;endArrow=none;endFill=0;" parent="1" source="VVzJJM5CuwtTol1S2sW--129" target="VVzJJM5CuwtTol1S2sW--127" edge="1">
          <mxGeometry relative="1" as="geometry" />
        </mxCell>
        <mxCell id="VVzJJM5CuwtTol1S2sW--129" value="&lt;span style=&quot;border-color: var(--border-color); font-size: 11px;&quot;&gt;max_visite_cities = 0&lt;br style=&quot;font-size: 11px;&quot;&gt;&lt;/span&gt;" style="html=1;dashed=0;whitespace=wrap;fontSize=11;" parent="1" vertex="1">
          <mxGeometry x="540" y="390" width="200" height="60" as="geometry" />
        </mxCell>
        <mxCell id="VVzJJM5CuwtTol1S2sW--130" style="edgeStyle=orthogonalEdgeStyle;rounded=0;orthogonalLoop=1;jettySize=auto;html=1;exitX=0.5;exitY=1;exitDx=0;exitDy=0;endArrow=none;endFill=0;" parent="1" source="VVzJJM5CuwtTol1S2sW--131" target="VVzJJM5CuwtTol1S2sW--116" edge="1">
          <mxGeometry relative="1" as="geometry" />
        </mxCell>
        <mxCell id="VVzJJM5CuwtTol1S2sW--131" value="chosen_place = 0" style="html=1;dashed=0;whitespace=wrap;" parent="1" vertex="1">
          <mxGeometry x="195" y="330" width="200" height="60" as="geometry" />
        </mxCell>
        <mxCell id="VVzJJM5CuwtTol1S2sW--132" value="" style="edgeStyle=orthogonalEdgeStyle;rounded=0;orthogonalLoop=1;jettySize=auto;html=1;endArrow=none;endFill=0;" parent="1" source="VVzJJM5CuwtTol1S2sW--133" target="VVzJJM5CuwtTol1S2sW--135" edge="1">
          <mxGeometry relative="1" as="geometry" />
        </mxCell>
        <mxCell id="VVzJJM5CuwtTol1S2sW--133" value="&lt;span style=&quot;border-color: var(--border-color);&quot;&gt;max_visite_cities = &amp;nbsp;cur_visit&lt;br&gt;&lt;/span&gt;" style="html=1;dashed=0;whitespace=wrap;fontSize=11;" parent="1" vertex="1">
          <mxGeometry x="825" y="900" width="200" height="60" as="geometry" />
        </mxCell>
        <mxCell id="VVzJJM5CuwtTol1S2sW--134" style="edgeStyle=orthogonalEdgeStyle;rounded=0;orthogonalLoop=1;jettySize=auto;html=1;exitX=0.5;exitY=1;exitDx=0;exitDy=0;entryX=0.5;entryY=1;entryDx=0;entryDy=0;endArrow=none;endFill=0;" parent="1" source="VVzJJM5CuwtTol1S2sW--135" target="VVzJJM5CuwtTol1S2sW--36" edge="1">
          <mxGeometry relative="1" as="geometry">
            <Array as="points">
              <mxPoint x="925" y="1080" />
              <mxPoint x="1050" y="1080" />
            </Array>
          </mxGeometry>
        </mxCell>
        <mxCell id="VVzJJM5CuwtTol1S2sW--135" value="best_way = visited[ant][:cur-visit]" style="html=1;dashed=0;whitespace=wrap;fontSize=11;" parent="1" vertex="1">
          <mxGeometry x="827.5" y="990" width="195" height="60" as="geometry" />
        </mxCell>
        <mxCell id="VVzJJM5CuwtTol1S2sW--136" value="&lt;br style=&quot;border-color: var(--border-color);&quot;&gt;max_visite_cities = &amp;nbsp;cur_visit&lt;br style=&quot;border-color: var(--border-color);&quot;&gt;" style="html=1;dashed=0;whitespace=wrap;fontSize=11;" parent="1" vertex="1">
          <mxGeometry x="1110" y="810" width="200" height="60" as="geometry" />
        </mxCell>
        <mxCell id="VVzJJM5CuwtTol1S2sW--137" style="edgeStyle=orthogonalEdgeStyle;rounded=0;orthogonalLoop=1;jettySize=auto;html=1;exitX=0.5;exitY=1;exitDx=0;exitDy=0;entryX=0.5;entryY=1;entryDx=0;entryDy=0;endArrow=none;endFill=0;" parent="1" source="VVzJJM5CuwtTol1S2sW--138" target="VVzJJM5CuwtTol1S2sW--36" edge="1">
          <mxGeometry relative="1" as="geometry">
            <Array as="points">
              <mxPoint x="1210" y="1080" />
              <mxPoint x="1050" y="1080" />
            </Array>
          </mxGeometry>
        </mxCell>
        <mxCell id="VVzJJM5CuwtTol1S2sW--138" value="best_way = visited[ant]" style="html=1;dashed=0;whitespace=wrap;fontSize=11;" parent="1" vertex="1">
          <mxGeometry x="1110" y="900" width="200" height="60" as="geometry" />
        </mxCell>
        <mxCell id="VVzJJM5CuwtTol1S2sW--139" style="edgeStyle=orthogonalEdgeStyle;rounded=0;orthogonalLoop=1;jettySize=auto;html=1;exitX=0.5;exitY=1;exitDx=0;exitDy=0;entryX=0.5;entryY=0;entryDx=0;entryDy=0;endArrow=none;endFill=0;" parent="1" source="VVzJJM5CuwtTol1S2sW--140" target="VVzJJM5CuwtTol1S2sW--87" edge="1">
          <mxGeometry relative="1" as="geometry" />
        </mxCell>
        <mxCell id="VVzJJM5CuwtTol1S2sW--140" value="pheromones[i][j] += &lt;br&gt;delta_pheromones&lt;span style=&quot;text-align: left&quot;&gt;&lt;br&gt;&lt;/span&gt;" style="html=1;dashed=0;whitespace=wrap;" parent="1" vertex="1">
          <mxGeometry x="2250" y="1020" width="200" height="60" as="geometry" />
        </mxCell>
      </root>
    </mxGraphModel>
  </diagram>
</mxfile>
